<svg width="116" height="114" viewBox="0 0 116 114" fill="none" xmlns="http://www.w3.org/2000/svg">
<path d="M109.5 55.4999C109.5 83.0835 86.9212 105.5 59 105.5C31.0789 105.5 8.5 83.0835 8.5 55.4999C8.5 27.9163 31.0789 5.49988 59 5.49988C86.9212 5.49988 109.5 27.9163 109.5 55.4999Z" stroke="#8BC0DF" stroke-width="7"/>
<path d="M29 42.1605L57.5721 62.5776L95.4 35.5465" stroke="#8BC0DF" stroke-width="7"/>
<path d="M96.2612 19.0525L103.24 11.6621L94 2.48962L112.913 21.196" stroke="#8BC0DF" stroke-width="7"/>
<path d="M19.6575 20.3787L12.6907 12.8564L21.9474 3.48975L3 22.5921" stroke="#8BC0DF" stroke-width="7"/>
<line y1="-3.5" x2="18.676" y2="-3.5" transform="matrix(0.642537 0.766255 -0.770178 0.637829 87 99)" stroke="#8BC0DF" stroke-width="7"/>
<line y1="-3.5" x2="18.676" y2="-3.5" transform="matrix(0.642596 -0.766205 0.770129 0.637888 18 113.31)" stroke="#8BC0DF" stroke-width="7"/>
</svg>
